<svg width="144" height="18" viewBox="0 0 144 18" fill="none" xmlns="http://www.w3.org/2000/svg">
<path fill-rule="evenodd" clip-rule="evenodd" d="M81.1636 14.0592C81.8656 14.0592 82.474 13.9118 82.9887 13.617C83.5035 13.3221 83.8966 12.8612 84.1681 12.2341L84.1259 13.9188H87.2989C87.2427 12.1592 87.2147 10.3387 87.2147 8.45741C87.2147 6.55738 87.2427 4.73691 87.2989 2.996H84.1259C84.1259 3.46399 84.1447 4.26893 84.1821 5.41081C84.2195 6.59014 84.2383 7.44656 84.2383 7.98006C83.9856 7.3436 83.5995 6.87327 83.08 6.56908C82.5605 6.26489 81.9358 6.11279 81.2057 6.11279C80.5786 6.11279 80.0194 6.30233 79.528 6.6814C79.0366 7.06047 78.6552 7.56121 78.3838 8.18364C78.1123 8.80606 77.9766 9.46826 77.9766 10.1702C77.9766 10.8816 78.1123 11.5344 78.3838 12.1288C78.6552 12.7231 79.0343 13.1934 79.521 13.5397C80.0077 13.8861 80.5552 14.0592 81.1636 14.0592ZM47.1737 11.4478V13.9188H43.72C43.7948 12.103 43.8323 10.4042 43.8323 8.82244C43.8323 7.24064 43.7948 5.54185 43.72 3.72606H47.1737V3.7401H50.094C51.9565 3.7401 53.2529 4.07003 53.9829 4.72989C54.713 5.38975 55.078 6.31871 55.078 7.51675C55.078 8.34041 54.9329 9.04005 54.6428 9.61567C54.3526 10.1913 53.8425 10.6406 53.1125 10.9635C52.3824 11.2864 51.3762 11.4478 50.094 11.4478H47.1737ZM47.1737 8.7382H49.1112C49.888 8.7382 50.4707 8.70778 50.8591 8.64694C51.2475 8.5861 51.519 8.47613 51.6734 8.31701C51.8278 8.1579 51.9051 7.9239 51.9051 7.61503C51.9051 7.30616 51.8325 7.07451 51.6874 6.92007C51.5424 6.76564 51.2756 6.66034 50.8872 6.60418C50.4988 6.54802 49.9068 6.51994 49.1112 6.51994H47.1737V8.7382ZM64.6343 13.989C64.9993 13.989 65.2918 13.9797 65.5118 13.9609C65.7317 13.9422 65.9915 13.9095 66.291 13.8627L66.3471 12.5429C66.1225 12.4868 65.9727 12.3932 65.8979 12.2621C65.823 12.1311 65.7855 11.9065 65.7855 11.5882V9.91753C65.7855 8.62588 65.4369 7.66885 64.7396 7.04643C64.0423 6.42401 62.9729 6.11279 61.5315 6.11279C60.502 6.11279 59.6268 6.29765 58.9061 6.66736C58.1854 7.03707 57.5443 7.57759 56.9827 8.28893C57.6941 8.66332 58.4054 9.10323 59.1167 9.60866C58.2744 9.73969 57.6519 9.97836 57.2495 10.3247C56.847 10.671 56.6458 11.1483 56.6458 11.7567C56.6458 12.4961 56.8821 13.053 57.3548 13.4274C57.8274 13.8018 58.5318 13.989 59.4677 13.989C60.2727 13.989 60.9349 13.8018 61.4543 13.4274C61.9738 13.053 62.3692 12.4821 62.6407 11.7146V12.0656C62.6407 12.6272 62.7717 13.0881 63.0338 13.4485C63.2959 13.8088 63.8294 13.989 64.6343 13.989ZM60.5628 8.82244C60.1978 8.98155 59.8702 9.22023 59.58 9.53846C60.1416 9.47294 60.8436 9.44018 61.686 9.44018C62.0323 9.44018 62.2756 9.39806 62.416 9.31382C62.5564 9.22959 62.6266 9.12195 62.6266 8.99091C62.6266 8.8786 62.5564 8.78266 62.416 8.7031C62.2756 8.62354 62.0791 8.58376 61.8264 8.58376C61.349 8.58376 60.9278 8.66332 60.5628 8.82244ZM60.3522 11.7006C59.8655 11.7006 59.6222 11.5648 59.6222 11.2934C59.6222 11.0407 59.8842 10.8629 60.4084 10.7599L60.9138 10.6757C61.2976 10.6195 61.6251 10.561 61.8966 10.5002C62.168 10.4393 62.416 10.3528 62.6407 10.2404V10.6055C62.4816 10.9331 62.1914 11.1975 61.7702 11.3987C61.349 11.5999 60.8764 11.7006 60.3522 11.7006ZM71.0738 11.8269C71.0738 12.4634 71.0925 13.1607 71.13 13.9188H67.7745C67.8494 12.571 67.8868 11.2981 67.8868 10.1C67.8868 8.902 67.8494 7.61971 67.7745 6.25319C68.315 6.27776 68.7445 6.29158 69.0628 6.29465L69.1925 6.29531C69.5388 6.29531 70.0115 6.28127 70.6105 6.25319L71.0176 8.31701C71.2329 7.56823 71.5699 7.01367 72.0285 6.65332C72.4871 6.29297 73.0206 6.11279 73.629 6.11279C74.1906 6.11279 74.6773 6.23681 75.0891 6.48484C75.501 6.73288 75.8122 7.06749 76.0228 7.48868C76.2334 7.90986 76.3386 8.38253 76.3386 8.90668V10.9284C76.3386 12.1732 76.362 13.17 76.4088 13.9188H73.2499C73.3061 12.5429 73.3342 11.2747 73.3342 10.1141C73.3342 9.70225 73.2336 9.37466 73.0323 9.13131C72.8311 8.88796 72.576 8.76628 72.2672 8.76628C71.9583 8.76628 71.6962 8.90434 71.4809 9.18045C71.2657 9.45656 71.1393 9.83329 71.1019 10.3106C71.0832 11.022 71.0738 11.5274 71.0738 11.8269ZM81.5707 11.2513C81.8328 11.5508 82.1885 11.7006 82.6378 11.7006C83.0964 11.7006 83.4708 11.5719 83.7609 11.3145C84.0511 11.0571 84.1962 10.6476 84.1962 10.086C84.1962 9.58994 84.0511 9.22491 83.7609 8.99091C83.4708 8.75692 83.1057 8.63992 82.6658 8.63992C82.2446 8.63992 81.8913 8.7733 81.6058 9.04005C81.3204 9.3068 81.1776 9.65545 81.1776 10.086C81.1776 10.5633 81.3087 10.9518 81.5707 11.2513ZM96.8552 13.989C97.2202 13.989 97.5127 13.9797 97.7327 13.9609C97.9526 13.9422 98.2124 13.9095 98.5119 13.8627L98.568 12.5429C98.3434 12.4868 98.1936 12.3932 98.1188 12.2621C98.0439 12.1311 98.0064 11.9065 98.0064 11.5882V9.91753C98.0064 8.62588 97.6578 7.66885 96.9605 7.04643C96.2632 6.42401 95.1938 6.11279 93.7524 6.11279C92.7229 6.11279 91.8477 6.29765 91.127 6.66736C90.4063 7.03707 89.7652 7.57759 89.2036 8.28893C89.9149 8.66332 90.6263 9.10323 91.3376 9.60866C90.4953 9.73969 89.8728 9.97836 89.4704 10.3247C89.0679 10.671 88.8667 11.1483 88.8667 11.7567C88.8667 12.4961 89.103 13.053 89.5757 13.4274C90.0483 13.8018 90.7526 13.989 91.6886 13.989C92.4936 13.989 93.1558 13.8018 93.6752 13.4274C94.1947 13.053 94.5901 12.4821 94.8616 11.7146V12.0656C94.8616 12.6272 94.9926 13.0881 95.2547 13.4485C95.5168 13.8088 96.0503 13.989 96.8552 13.989ZM92.7837 8.82244C92.4187 8.98155 92.0911 9.22023 91.8009 9.53846C92.3625 9.47294 93.0645 9.44018 93.9069 9.44018C94.2532 9.44018 94.4965 9.39806 94.6369 9.31382C94.7773 9.22959 94.8475 9.12195 94.8475 8.99091C94.8475 8.8786 94.7773 8.78266 94.6369 8.7031C94.4965 8.62354 94.3 8.58376 94.0473 8.58376C93.5699 8.58376 93.1487 8.66332 92.7837 8.82244ZM92.5731 11.7006C92.0864 11.7006 91.8431 11.5648 91.8431 11.2934C91.8431 11.0407 92.1051 10.8629 92.6293 10.7599L93.1347 10.6757C93.5184 10.6195 93.846 10.561 94.1175 10.5002C94.3889 10.4393 94.6369 10.3528 94.8616 10.2404V10.6055C94.7024 10.9331 94.4123 11.1975 93.9911 11.3987C93.5699 11.5999 93.0973 11.7006 92.5731 11.7006ZM107.787 13.3783C107.001 13.8322 105.915 14.0592 104.53 14.0592C103.744 14.0592 102.946 13.9492 102.136 13.7293C101.327 13.5093 100.566 13.1747 99.855 12.7254L101.329 10.7178C101.76 11.0267 102.279 11.2677 102.888 11.4408C103.496 11.614 104.02 11.7006 104.46 11.7006C104.881 11.7006 105.206 11.6421 105.436 11.5251C105.665 11.4081 105.78 11.256 105.78 11.0688C105.78 10.919 105.724 10.802 105.611 10.7178C105.499 10.6335 105.344 10.5914 105.148 10.5914C105.026 10.5914 104.888 10.5961 104.734 10.6055C104.579 10.6148 104.455 10.6242 104.362 10.6335C103.875 10.6897 103.374 10.7178 102.859 10.7178C102.026 10.7178 101.35 10.561 100.831 10.2475C100.311 9.93391 100.052 9.42146 100.052 8.71012C100.052 7.88646 100.44 7.24766 101.217 6.79372C101.994 6.33977 103.136 6.11279 104.642 6.11279C105.382 6.11279 106.128 6.21809 106.882 6.42869C107.635 6.63928 108.302 6.95517 108.882 7.37636L107.268 9.00495C106.734 8.72416 106.236 8.52527 105.773 8.40827C105.309 8.29127 104.844 8.23277 104.376 8.23277C104.048 8.23277 103.767 8.29829 103.533 8.42933C103.299 8.56037 103.182 8.71012 103.182 8.8786C103.182 9.00963 103.232 9.11259 103.33 9.18747C103.428 9.26235 103.557 9.29978 103.716 9.29978C103.875 9.29978 104.095 9.28574 104.376 9.25767C105.059 9.21087 105.569 9.18747 105.906 9.18747C106.879 9.18747 107.633 9.35126 108.166 9.67885C108.7 10.0064 108.967 10.5072 108.967 11.1811C108.967 12.1919 108.574 12.9243 107.787 13.3783ZM117.021 13.9188H120.769L122.328 6.25319H119.534L118.326 11.7567L117.54 6.25319H114.774L113.96 11.7427L112.767 6.25319H109.973L111.531 13.9188H115.139L116.136 10.3387L117.021 13.9188ZM132.2 13.9609C131.98 13.9797 131.687 13.989 131.322 13.989C130.517 13.989 129.984 13.8088 129.722 13.4485C129.46 13.0881 129.329 12.6272 129.329 12.0656V11.7146C129.057 12.4821 128.662 13.053 128.142 13.4274C127.623 13.8018 126.961 13.989 126.156 13.989C125.22 13.989 124.516 13.8018 124.043 13.4274C123.57 13.053 123.334 12.4961 123.334 11.7567C123.334 11.1483 123.535 10.671 123.938 10.3247C124.34 9.97836 124.962 9.73969 125.805 9.60866C125.094 9.10323 124.382 8.66332 123.671 8.28893C124.232 7.57759 124.874 7.03707 125.594 6.66736C126.315 6.29765 127.19 6.11279 128.22 6.11279C129.661 6.11279 130.73 6.42401 131.428 7.04643C132.125 7.66885 132.474 8.62588 132.474 9.91753V11.5882C132.474 11.9065 132.511 12.1311 132.586 12.2621C132.661 12.3932 132.811 12.4868 133.035 12.5429L132.979 13.8627C132.68 13.9095 132.42 13.9422 132.2 13.9609ZM126.268 9.53846C126.558 9.22023 126.886 8.98155 127.251 8.82244C127.616 8.66332 128.037 8.58376 128.515 8.58376C128.767 8.58376 128.964 8.62354 129.104 8.7031C129.245 8.78266 129.315 8.8786 129.315 8.99091C129.315 9.12195 129.245 9.22959 129.104 9.31382C128.964 9.39806 128.72 9.44018 128.374 9.44018C127.532 9.44018 126.83 9.47294 126.268 9.53846ZM126.31 11.2934C126.31 11.5648 126.554 11.7006 127.04 11.7006C127.564 11.7006 128.037 11.5999 128.458 11.3987C128.88 11.1975 129.17 10.9331 129.329 10.6055V10.2404C129.104 10.3528 128.856 10.4393 128.585 10.5002C128.313 10.561 127.986 10.6195 127.602 10.6757L127.096 10.7599C126.572 10.8629 126.31 11.0407 126.31 11.2934ZM137.636 17.176C137.636 16.708 137.617 15.9031 137.579 14.7612C137.542 13.5819 137.523 12.7254 137.523 12.1919C137.776 12.8284 138.162 13.2987 138.682 13.6029C139.201 13.9071 139.826 14.0592 140.556 14.0592C141.183 14.0592 141.742 13.8697 142.234 13.4906C142.725 13.1115 143.106 12.6108 143.378 11.9884C143.649 11.3659 143.785 10.7037 143.785 10.0018C143.785 9.29042 143.649 8.63758 143.378 8.04324C143.106 7.4489 142.727 6.97857 142.241 6.63226C141.754 6.28595 141.206 6.11279 140.598 6.11279C139.887 6.11279 139.269 6.26489 138.745 6.56908C138.221 6.87327 137.827 7.35296 137.565 8.00814L137.158 6.25319H134.463C134.519 7.9941 134.547 9.81457 134.547 11.7146C134.547 13.6146 134.519 15.4351 134.463 17.176H137.636ZM138.422 11.3847C138.656 11.4829 138.88 11.5321 139.096 11.5321C139.517 11.5321 139.87 11.3987 140.156 11.132C140.441 10.8652 140.584 10.5166 140.584 10.086C140.584 9.60866 140.453 9.22023 140.191 8.92072C139.929 8.6212 139.573 8.47145 139.124 8.47145C138.609 8.47145 138.221 8.59546 137.958 8.8435C137.696 9.09153 137.565 9.5057 137.565 10.086C137.565 10.4136 137.65 10.6874 137.818 10.9073C137.987 11.1273 138.188 11.2864 138.422 11.3847Z" fill="#231F20"/>
<path fill-rule="evenodd" clip-rule="evenodd" d="M16.1454 0.496552C13.9447 0.910345 12.7929 0.993105 9.7695 1.01379C6.25248 1.01379 6.04681 0.993103 5.8 0.579309C5.42979 0 4.27801 0.103449 4.11348 0.744827C4.05177 0.993103 3.68156 1.44827 3.29078 1.73793C2.57092 2.27586 2.0156 3.04138 1.19291 4.67586C0.946099 5.17241 0.575886 5.6069 0.370213 5.68966C0.164539 5.75172 0 5.87586 0 5.97931C0 6.51724 1.46028 8.1931 2.75603 9.16552C4.87447 10.7379 5.18298 11.3172 5.42979 14.1931C5.61489 16.3862 5.61489 16.5517 5.22411 16.8207C4.9156 17.069 4.87447 17.1931 5.05957 17.5034C5.24468 17.7931 5.61489 17.8966 6.84894 17.9379L8.41206 18L9.27589 16.9034C9.74894 16.3034 10.4894 15.2897 10.9213 14.6483L11.7028 13.4897L15.1582 13.3655C17.0504 13.2828 18.7986 13.2 19.0043 13.1793C19.3539 13.1172 19.4362 13.3448 19.683 14.8759C19.8681 16.0552 19.8887 16.6552 19.7447 16.6966C19.4156 16.8207 19.4979 17.7103 19.8681 17.8552C20.0532 17.9172 20.7936 17.9793 21.5135 17.9793C22.7475 17.9793 22.8915 17.9172 23.6525 17.2345C25.7092 15.3517 27.6014 12.3517 28.383 9.74483C28.9794 7.75862 28.8972 5.31724 28.1979 3.84828C27.5603 2.52414 26.2645 1.28276 24.8865 0.641378C23.2206 -0.144829 19.8475 -0.206898 16.1454 0.496552ZM24.8043 1.11724C26.6965 2.04828 28.1156 4.05517 28.3213 6.08276C28.4652 7.55172 28.0745 9.68276 27.3546 11.2759C27.0255 12 26.717 12.6 26.6348 12.6C26.573 12.6 26.244 12.3931 25.8943 12.1448C25.0511 11.5034 22.4801 11.3586 20.9376 11.8759C19.7858 12.2483 19.539 12.1241 19.539 11.1931C19.539 10.9448 19.4362 10.7379 19.3128 10.7379C19.1482 10.7379 19.1071 11.0276 19.1894 11.6483L19.3128 12.5793L18.2433 12.6828C17.6705 12.7424 16.358 12.8401 15.2711 12.9211L15.1376 12.931L13.0809 13.0552L13.739 12.3103C14.4589 11.4621 15.0142 9.84828 15.0142 8.52414C15.0142 7.30345 14.4177 5.58621 13.2454 3.51724C12.217 1.67586 12.2376 1.42759 13.3894 1.42759C13.6773 1.42759 14.8496 1.24138 15.9603 1.01379C18.7986 0.455173 19.1482 0.413794 21.5752 0.496552C23.3645 0.55862 23.8993 0.662069 24.8043 1.11724ZM9.17305 5.83448C9.5844 4.42759 9.50213 1.92414 9.04965 1.63448C8.61773 1.34483 5.82057 1.38621 5.63546 1.65517C5.55319 1.77931 5.24468 1.84138 4.89504 1.75862C4.09291 1.5931 3.27021 2.08965 2.67376 3.06207C1.39858 5.1931 0.822695 6.26897 0.822695 6.47586C0.822695 6.8069 1.78936 7.82069 2.7766 8.56552C3.22908 8.89655 3.94894 9.47586 4.36028 9.86897L5.12128 10.5931L6.06738 10.0345C7.26028 9.31034 8.74113 7.32414 9.17305 5.83448Z" fill="#231F20"/>
<path fill-rule="evenodd" clip-rule="evenodd" d="M3.78438 6.18622C2.94112 6.18622 1.87161 4.38622 2.40636 3.84829C2.71487 3.51725 3.5787 3.74484 4.13402 4.30346C5.01842 5.2138 4.85388 6.18622 3.78438 6.18622ZM2.89998 4.69656C3.02339 4.65518 3.12622 4.53105 3.12622 4.4276C3.12622 4.32415 3.02339 4.20001 2.89998 4.15863C2.77658 4.11725 2.67374 4.24139 2.67374 4.4276C2.67374 4.6138 2.77658 4.73794 2.89998 4.69656Z" fill="#231F20"/>
<path d="M27.0872 13.8C26.4497 14.8138 25.7298 15.8069 25.5036 16.0138C24.9894 16.469 24.9482 17.669 25.4213 17.8552C25.8326 18.0207 28.2596 18.0207 28.6709 17.8552C28.9177 17.7517 29 17.4414 29 16.5517C28.9794 15.4759 28.5064 12.2483 28.3418 12.0621C28.2801 12.0207 27.7248 12.8069 27.0872 13.8Z" fill="#231F20"/>
<path d="M11.1886 15.1862C10.4482 16.3034 10.4482 16.3448 10.7979 16.7379C11.0035 16.9655 11.1064 17.2138 11.0447 17.2966C10.9624 17.3586 11.0035 17.5448 11.1269 17.7103C11.2915 17.8966 11.8674 17.9793 12.8546 17.9793C14.7468 17.9793 14.8908 17.8138 14.7057 16.0759C14.5 13.9862 14.5411 14.0483 13.1425 14.0483H11.9291L11.1886 15.1862Z" fill="#231F20"/>
</svg>
