<svg width="29" height="18" viewBox="0 0 29 18" fill="none" xmlns="http://www.w3.org/2000/svg">
<path fill-rule="evenodd" clip-rule="evenodd" d="M16.1454 0.496552C13.9447 0.910345 12.7929 0.993105 9.7695 1.01379C6.25248 1.01379 6.04681 0.993103 5.8 0.579309C5.42979 0 4.27801 0.103449 4.11348 0.744827C4.05177 0.993103 3.68156 1.44827 3.29078 1.73793C2.57092 2.27586 2.0156 3.04138 1.19291 4.67586C0.946099 5.17241 0.575886 5.6069 0.370213 5.68966C0.164539 5.75172 0 5.87586 0 5.97931C0 6.51724 1.46028 8.1931 2.75603 9.16552C4.87447 10.7379 5.18298 11.3172 5.42979 14.1931C5.61489 16.3862 5.61489 16.5517 5.22411 16.8207C4.9156 17.069 4.87447 17.1931 5.05957 17.5034C5.24468 17.7931 5.61489 17.8966 6.84894 17.9379L8.41206 18L9.27589 16.9034C9.74894 16.3034 10.4894 15.2897 10.9213 14.6483L11.7028 13.4897L15.1582 13.3655C17.0504 13.2828 18.7986 13.2 19.0043 13.1793C19.3539 13.1172 19.4362 13.3448 19.683 14.8759C19.8681 16.0552 19.8887 16.6552 19.7447 16.6966C19.4156 16.8207 19.4979 17.7103 19.8681 17.8552C20.0532 17.9172 20.7936 17.9793 21.5135 17.9793C22.7475 17.9793 22.8915 17.9172 23.6525 17.2345C25.7092 15.3517 27.6014 12.3517 28.383 9.74483C28.9794 7.75862 28.8972 5.31724 28.1979 3.84828C27.5603 2.52414 26.2645 1.28276 24.8865 0.641378C23.2206 -0.144829 19.8475 -0.206898 16.1454 0.496552ZM24.8043 1.11724C26.6965 2.04828 28.1156 4.05517 28.3213 6.08276C28.4652 7.55172 28.0745 9.68276 27.3546 11.2759C27.0255 12 26.717 12.6 26.6348 12.6C26.573 12.6 26.244 12.3931 25.8943 12.1448C25.0511 11.5034 22.4801 11.3586 20.9376 11.8759C19.7858 12.2483 19.539 12.1241 19.539 11.1931C19.539 10.9448 19.4362 10.7379 19.3128 10.7379C19.1482 10.7379 19.1071 11.0276 19.1894 11.6483L19.3128 12.5793L18.2433 12.6828C17.6705 12.7424 16.358 12.8401 15.2711 12.9211L15.1376 12.931L13.0809 13.0552L13.739 12.3103C14.4589 11.4621 15.0142 9.84828 15.0142 8.52414C15.0142 7.30345 14.4177 5.58621 13.2454 3.51724C12.217 1.67586 12.2376 1.42759 13.3894 1.42759C13.6773 1.42759 14.8496 1.24138 15.9603 1.01379C18.7986 0.455173 19.1482 0.413794 21.5752 0.496552C23.3645 0.55862 23.8993 0.662069 24.8043 1.11724ZM9.17305 5.83448C9.5844 4.42759 9.50213 1.92414 9.04965 1.63448C8.61773 1.34483 5.82057 1.38621 5.63546 1.65517C5.55319 1.77931 5.24468 1.84138 4.89504 1.75862C4.09291 1.5931 3.27021 2.08965 2.67376 3.06207C1.39858 5.1931 0.822695 6.26897 0.822695 6.47586C0.822695 6.8069 1.78936 7.82069 2.7766 8.56552C3.22908 8.89655 3.94894 9.47586 4.36028 9.86897L5.12128 10.5931L6.06738 10.0345C7.26028 9.31034 8.74113 7.32414 9.17305 5.83448Z" fill="#231F20"/>
<path fill-rule="evenodd" clip-rule="evenodd" d="M3.78438 6.18622C2.94112 6.18622 1.87161 4.38622 2.40636 3.84829C2.71487 3.51725 3.5787 3.74484 4.13402 4.30346C5.01842 5.2138 4.85388 6.18622 3.78438 6.18622ZM2.89998 4.69656C3.02339 4.65518 3.12622 4.53105 3.12622 4.4276C3.12622 4.32415 3.02339 4.20001 2.89998 4.15863C2.77658 4.11725 2.67374 4.24139 2.67374 4.4276C2.67374 4.6138 2.77658 4.73794 2.89998 4.69656Z" fill="#231F20"/>
<path d="M27.0872 13.8C26.4497 14.8138 25.7298 15.8069 25.5036 16.0138C24.9894 16.469 24.9482 17.669 25.4213 17.8552C25.8326 18.0207 28.2596 18.0207 28.6709 17.8552C28.9177 17.7517 29 17.4414 29 16.5517C28.9794 15.4759 28.5064 12.2483 28.3418 12.0621C28.2801 12.0207 27.7248 12.8069 27.0872 13.8Z" fill="#231F20"/>
<path d="M11.1886 15.1862C10.4482 16.3034 10.4482 16.3448 10.7979 16.7379C11.0035 16.9655 11.1064 17.2138 11.0447 17.2966C10.9624 17.3586 11.0035 17.5448 11.1269 17.7103C11.2915 17.8966 11.8674 17.9793 12.8546 17.9793C14.7468 17.9793 14.8908 17.8138 14.7057 16.0759C14.5 13.9862 14.5411 14.0483 13.1425 14.0483H11.9291L11.1886 15.1862Z" fill="#231F20"/>
</svg>
