<svg width="310" height="216" viewBox="0 0 310 216" fill="none" xmlns="http://www.w3.org/2000/svg">
<path fill-rule="evenodd" clip-rule="evenodd" d="M172.589 5.86928C149.064 10.8369 136.752 11.8304 104.433 12.0788C66.8369 12.0788 64.6383 11.8304 62 6.86279C58.0426 -0.0918884 45.7305 1.15002 43.9716 8.84985C43.3121 11.8304 39.3546 17.2948 35.1773 20.7722C27.4823 27.2301 21.5461 36.4202 12.7518 56.0423C10.1135 62.0035 6.15603 67.2195 3.95745 68.213C1.75887 68.9582 0 70.4485 0 71.6904C0 78.1483 15.6099 98.2672 29.461 109.941C52.1064 128.818 55.4043 135.773 58.0426 170.298C60.0213 196.626 60.0213 198.613 55.844 201.842C52.5461 204.823 52.1064 206.313 54.0851 210.039C56.0638 213.516 60.0213 214.758 73.2128 215.255L89.922 216L99.156 202.836C104.213 195.633 112.128 183.462 116.745 175.762L125.099 161.853L162.035 160.363C182.262 159.369 200.95 158.375 203.149 158.127C206.887 157.382 207.766 160.114 210.404 178.494C212.383 192.652 212.603 199.855 211.064 200.352C207.546 201.842 208.426 212.523 212.383 214.261C214.362 215.006 222.277 215.752 229.972 215.752C243.163 215.752 244.702 215.006 252.837 206.81C274.823 184.207 295.05 148.192 303.404 116.896C309.78 93.0512 308.901 63.7422 301.426 46.1071C294.61 30.2107 280.759 15.3078 266.028 7.60794C248.22 -1.83055 212.163 -2.57568 172.589 5.86928ZM265.149 13.3208C285.376 24.4979 300.546 48.5909 302.745 72.9323C304.284 90.5674 300.106 116.151 292.411 135.276C288.894 143.969 285.596 151.172 284.716 151.172C284.057 151.172 280.539 148.689 276.801 145.708C267.787 138.008 240.305 136.27 223.816 142.479C211.504 146.95 208.865 145.46 208.865 134.283C208.865 131.302 207.766 128.818 206.447 128.818C204.688 128.818 204.248 132.295 205.128 139.747L206.447 150.924L195.014 152.166C188.891 152.882 174.86 154.055 163.242 155.027L163.241 155.027L161.816 155.147L139.83 156.637L146.865 147.695C154.56 137.511 160.496 118.138 160.496 102.241C160.496 87.5868 154.121 66.9712 141.589 42.133C130.596 20.0271 130.816 17.0465 143.128 17.0465C146.206 17.0465 158.738 14.8111 170.61 12.0789C200.95 5.37256 204.688 4.87579 230.631 5.86932C249.759 6.61447 255.475 7.85637 265.149 13.3208ZM98.0567 69.9518C102.454 53.0618 101.574 23.0077 96.7376 19.5303C92.1205 16.053 62.2198 16.5498 60.2411 19.7787C59.3617 21.269 56.0638 22.0141 52.3262 21.0206C43.7517 19.0336 34.9574 24.9947 28.5815 36.6687C14.9503 62.2519 8.7943 75.1678 8.7943 77.6516C8.7943 81.6257 19.1276 93.7964 29.6808 102.738C34.5177 106.712 42.2127 113.667 46.6099 118.386L54.7447 127.08L64.8581 120.373C77.6099 111.68 93.4397 87.8352 98.0567 69.9518Z" fill="#231F20"/>
<path fill-rule="evenodd" clip-rule="evenodd" d="M40.4539 74.1743C31.4397 74.1743 20.0071 52.5651 25.7234 46.1072C29.0212 42.1331 38.2553 44.8653 44.1914 51.5716C53.6453 62.5004 51.8865 74.1743 40.4539 74.1743ZM30.9999 56.2908C32.3191 55.794 33.4184 54.3037 33.4184 53.0618C33.4184 51.8199 32.3191 50.3296 30.9999 49.8328C29.6808 49.3361 28.5815 50.8264 28.5815 53.0618C28.5815 55.2972 29.6808 56.7875 30.9999 56.2908Z" fill="#231F20"/>
<path d="M289.553 165.579C282.738 177.749 275.043 189.672 272.624 192.155C267.128 197.62 266.688 212.026 271.745 214.261C276.142 216.248 302.085 216.248 306.482 214.261C309.121 213.019 310 209.294 310 198.613C309.78 185.697 304.723 146.95 302.965 144.715C302.305 144.218 296.369 153.656 289.553 165.579Z" fill="#231F20"/>
<path d="M119.603 182.22C111.688 195.633 111.688 196.129 115.426 200.849C117.624 203.581 118.723 206.561 118.064 207.555C117.184 208.3 117.624 210.536 118.943 212.523C120.702 214.758 126.858 215.752 137.411 215.752C157.638 215.752 159.177 213.765 157.199 192.901C155 167.814 155.44 168.559 140.489 168.559H127.518L119.603 182.22Z" fill="#231F20"/>
</svg>
